<?xml version="1.0" encoding="utf-8" ?>	<!-- Generator: Assembly 2.4 - http://assemblyapp.co -->	<svg version="1.1" xmlns="http://www.w3.org/2000/svg" xmlns:xlink="http://www.w3.org/1999/xlink" width="4096.00" height="4096.00" viewBox="0 0 4096.0 4096.0">		<rect x="0" y="0" width="4096.00" height="4096.00" fill="#865f3e" />		<g id="document" transform="scale(13.653333333333334 13.653333333333334) translate(150.0 150.0)">			<path d="M-113.664,-7.73434 C-108.24,12.7826 -97.8632,31.6487 -83.7136,46.27 C-76.8746,53.5806 -68.8565,59.7121 -60.1309,64.6644 C-55.886,67.0227 -51.4053,69.1451 -46.9246,70.7959 C-45.7455,71.0318 -44.5663,71.7392 -43.3872,71.9751 L-41.7364,72.6825 C-41.0289,72.9184 -40.3215,73.1542 -39.8498,73.1542 C-37.7274,73.8617 -35.1333,74.5692 -33.0108,74.805 C-13.9089,78.814 5.66474,76.2199 20.5218,66.0794 C28.0683,61.3629 34.4356,54.5239 39.3879,46.7416 C41.982,42.7326 44.1045,38.7235 46.2269,34.2428 C48.1135,29.9979 49.5285,25.753 50.236,21.2723 C51.8868,12.5468 51.1793,3.34951 48.5852,-4.90442 C47.1702,-9.14929 45.2836,-13.3942 42.6895,-16.9316 C40.3313,-20.7048 37.5013,-24.0064 33.9639,-27.0721 C30.6624,-29.902 26.6533,-32.4961 22.6443,-34.6186 C18.871,-36.5052 14.6262,-37.4485 10.3813,-37.9201 C1.65569,-38.6276 -7.54155,-35.5619 -14.8522,-29.6662 C-18.6254,-26.8363 -21.6911,-22.8272 -24.0494,-18.5824 C-26.4077,-14.3375 -27.5868,-9.85678 -27.8226,-4.90442 C-27.8226,5.0003 -22.3986,15.6125 -12.4939,21.2723 C-18.1537,19.8574 -23.1061,16.7916 -27.5868,12.3109 C-31.8317,8.06605 -34.8974,2.17038 -36.0766,-4.19694 C-37.4915,-10.3284 -37.0199,-17.4032 -34.8974,-23.7706 C-33.0108,-29.902 -29.7093,-35.5619 -25.2285,-40.5142 C-20.7478,-45.4666 -15.5597,-49.7115 -9.42816,-52.5414 C-3.53249,-55.6071 3.30648,-57.2579 10.1454,-57.9654 C17.2203,-58.4371 24.0592,-57.7296 30.6624,-55.3713 C37.0297,-53.2489 43.1612,-50.419 48.5852,-46.4099 C54.0092,-42.4009 59.1974,-37.6843 63.4423,-32.4961 C67.4513,-27.0721 70.9887,-21.1765 73.5828,-14.8091 C78.771,-2.0745 80.4218,11.8393 78.771,25.2814 C78.0635,32.1204 75.9411,38.9593 73.5828,44.6192 C71.2245,50.7507 68.3946,56.4105 65.093,62.0703 C58.2541,73.1542 48.5852,83.2947 37.2655,90.8412 C25.71,98.1518 12.9754,102.868 -0.466754,104.519 C-13.4372,106.17 -26.8793,104.991 -39.3781,101.925 C-42.4439,101.218 -45.2738,100.274 -48.8112,99.0951 L-50.9337,98.3876 L-53.2919,97.4443 C-54.7069,96.9727 -56.3577,96.2652 -57.7726,95.7935 C-63.6683,93.1995 -69.0923,90.1337 -74.5163,86.5963 C-85.1285,79.7573 -94.0899,70.7959 -101.872,61.127 C-117.201,41.5534 -126.162,17.9708 -128.285,-5.84773 C-130.643,-29.4304 -126.162,-53.7205 -114.371,-73.53 C-120.031,-50.8906 -119.323,-28.4871 -113.664,-7.73434 Z M115.56,7.83023 C110.136,-12.6867 99.7596,-31.5528 85.61,-46.1741 C78.771,-53.4847 70.7529,-59.6162 62.0273,-64.5686 C57.7824,-66.9268 53.3017,-69.0493 48.821,-70.7 C47.6419,-70.9359 46.4628,-71.6434 45.2836,-71.8792 L43.6328,-72.5867 C42.9254,-72.8225 42.2179,-73.0583 41.7462,-73.0583 C39.6238,-73.7658 37.0297,-74.4733 34.9072,-74.7091 C15.8053,-78.7182 -3.76832,-76.1241 -18.6254,-65.9835 C-26.1719,-61.267 -32.5392,-54.428 -37.4915,-46.6457 C-40.0856,-42.6367 -42.2081,-38.6276 -44.3305,-34.1469 C-46.2171,-29.902 -47.6321,-25.6572 -48.3396,-21.1765 C-49.9903,-12.4509 -49.2829,-3.25363 -46.6888,5.0003 C-45.2738,9.24518 -43.3872,13.4901 -40.7931,17.0275 C-38.4348,20.8007 -35.6049,24.1023 -32.0675,27.168 C-28.7659,29.9979 -24.7569,32.592 -20.7478,34.7145 C-16.9746,36.6011 -12.7297,37.5444 -8.48486,38.016 C0.240728,38.7235 9.43797,35.6578 16.7486,29.7621 C20.5218,26.9322 23.5876,22.9231 25.9458,18.6782 C28.3041,14.4334 29.4832,9.95266 29.7191,5.0003 C29.7191,-4.90442 24.295,-15.5166 14.3903,-21.1765 C20.0502,-19.7615 25.0025,-16.6957 29.4832,-12.215 C33.4923,-7.73434 36.7939,-2.0745 37.973,4.29282 C39.3879,10.4243 38.9163,17.4991 36.7939,23.8664 C34.9072,29.9979 31.6057,35.6578 27.125,40.6101 C22.6443,45.5625 17.4561,49.8074 11.3246,52.6373 C5.42891,55.703 -1.41006,57.3538 -8.24903,58.0613 C-15.3238,58.5329 -22.1628,57.8255 -28.7659,55.4672 C-35.1333,53.3448 -41.2648,50.5148 -46.6888,46.5058 C-52.1128,42.4967 -57.301,37.7802 -61.5459,32.592 C-65.5549,27.168 -69.0923,21.2723 -71.6864,14.905 C-76.8746,2.17037 -78.5254,-11.7434 -76.8746,-25.1855 C-76.1671,-32.0245 -74.0447,-38.8635 -71.6864,-44.5233 C-69.3281,-50.6548 -66.4982,-56.3146 -63.1966,-61.9745 C-56.3577,-73.0583 -46.6888,-83.1989 -35.3691,-90.7453 C-23.8136,-98.0559 -11.0789,-102.772 2.36318,-104.423 C15.3336,-106.074 28.7758,-104.895 41.2746,-101.829 C44.3403,-101.122 47.1702,-100.178 50.7076,-98.9992 L52.5942,-98.5276 L54.9525,-97.5843 C56.3675,-97.1126 58.0183,-96.4052 59.4332,-95.9335 C65.3289,-93.3394 70.7529,-90.2737 76.1769,-86.7363 C86.7891,-79.8973 95.7505,-70.9359 103.533,-61.267 C118.862,-41.6934 127.823,-18.1107 129.945,5.70779 C132.304,29.2904 127.823,53.5806 116.032,73.39 C121.456,50.9865 120.984,28.3471 115.56,7.83023 Z " fill="#000000" fill-opacity="1.00" />			<path d="M-52.1624,98.1372 C-31.5323,101.522 -10.3922,99.7895 8.45076,92.9555 C17.7773,89.7504 26.5185,85.0105 34.4844,79.1597 C38.3139,76.2929 42.0263,73.119 45.3147,69.7553 C46.0015,68.7901 47.1124,68.0148 47.7992,67.0497 L49.0999,65.8504 C49.5968,65.3093 50.0937,64.7682 50.2837,64.3441 C51.7743,62.7208 53.455,60.6734 54.5216,58.8601 C65.8176,43.3004 71.3668,24.6579 68.2321,7.21715 C67.0302,-1.46678 63.4454,-9.9452 58.4427,-17.5313 C55.8828,-21.4779 53.133,-25.0004 49.9592,-28.7128 C46.9024,-32.1182 43.6557,-35.0996 39.9121,-37.5399 C32.7319,-42.5375 24.1781,-45.6047 15.7127,-46.596 C11.3265,-47.0331 6.75044,-47.0461 2.52554,-46.1382 C-1.81643,-45.5373 -5.92426,-44.3224 -10.1049,-42.3765 C-13.9786,-40.5476 -17.9252,-37.9878 -21.4477,-35.238 C-24.6632,-32.6052 -27.2205,-29.1686 -29.3538,-25.5421 C-33.5033,-17.9821 -34.4504,-8.47869 -32.0934,0.468005 C-31.0685,4.99988 -28.6985,9.37048 -25.8316,13.2 C-22.9648,17.0294 -19.4111,19.8938 -15.0536,22.0999 C-6.14853,26.0881 5.57659,25.4846 14.6534,18.8586 C11.1023,23.3774 6.35183,26.5955 0.519178,28.8198 C-5.0065,30.927 -11.5416,31.3093 -17.741,29.8056 C-23.8234,28.6089 -29.9942,25.3361 -34.8642,20.864 C-39.6172,16.6989 -43.3764,11.4516 -46.0247,5.42902 C-48.673,-0.593549 -50.4004,-6.96732 -50.4758,-13.6194 C-50.8581,-20.1545 -49.5885,-26.9679 -47.4708,-33.4015 C-45.0462,-39.9521 -41.6563,-45.816 -36.8773,-50.8031 C-32.4052,-55.6731 -27.392,-60.0462 -21.6036,-63.3085 C-15.8151,-66.5708 -9.48557,-69.3362 -3.1118,-71.0636 C3.37904,-72.4839 10.104,-73.2904 16.8732,-73.0588 C30.4116,-72.5956 43.5857,-68.4773 55.0064,-61.5805 C60.8702,-58.1907 66.1643,-53.5287 70.3033,-49.1295 C74.8664,-44.5403 78.8155,-39.717 82.5747,-34.4697 C89.786,-23.858 95.0098,-11.0818 97.2366,2.13398 C99.1565,15.4669 98.2692,28.8153 94.3408,41.5654 C90.6023,53.8915 84.1296,65.502 76.3405,75.5049 C74.47,77.9763 72.4824,80.1408 69.9979,82.8464 L68.5072,84.4697 L66.7096,86.2101 C65.7158,87.2924 64.415,88.4917 63.4212,89.5739 C58.715,93.83 53.7747,97.4721 48.4103,100.924 C37.9885,107.712 26.3232,112.16 14.4966,115.264 C-9.27371,121.164 -34.0845,119.725 -56.3536,112.042 C-78.5056,104.667 -98.5399,90.8578 -111.602,72.2801 C-93.5267,86.4847 -73.0995,94.8696 -52.1624,98.1372 Z M54.13,-101.683 C33.4999,-105.068 12.3598,-103.335 -6.48319,-96.5014 C-15.8097,-93.2964 -24.5509,-88.5564 -32.5168,-82.7056 C-36.3463,-79.8388 -40.0587,-76.6649 -43.3471,-73.3012 C-44.0339,-72.336 -45.1448,-71.5608 -45.8316,-70.5956 L-47.1324,-69.3963 C-47.6293,-68.8552 -48.1262,-68.3141 -48.3161,-67.89 C-49.8068,-66.2667 -51.4874,-64.2193 -52.554,-62.406 C-63.85,-46.8463 -69.3992,-28.2038 -66.2645,-10.7631 C-65.0627,-2.07915 -61.4778,6.39928 -56.4751,13.9854 C-53.9152,17.9319 -51.1654,21.4544 -47.9916,25.1668 C-44.9348,28.5723 -41.6881,31.5537 -37.9445,33.9939 C-30.7643,38.9915 -22.2105,42.0588 -13.7451,43.0501 C-9.35896,43.4872 -4.78286,43.5002 -0.557962,42.5923 C3.784,41.9914 7.89183,40.7765 12.0725,38.8306 C15.9462,37.0017 19.8928,34.4418 23.4153,31.692 C26.6308,29.0593 29.1881,25.6227 31.3214,21.9962 C35.4709,14.4362 36.4179,4.93276 34.061,-4.01393 C33.036,-8.54581 30.6661,-12.9164 27.7992,-16.7459 C24.9324,-20.5754 21.3787,-23.4397 17.0211,-25.6458 C8.11611,-29.634 -3.60901,-29.0306 -12.6858,-22.4045 C-9.13469,-26.9234 -4.38426,-30.1414 1.4484,-32.3657 C7.09114,-34.1659 13.5091,-34.8553 19.7086,-33.3515 C25.7909,-32.1548 31.9618,-28.882 36.8318,-24.4099 C41.5848,-20.2448 45.344,-14.9975 47.9923,-8.97495 C50.6406,-2.95238 52.368,3.42139 52.4433,10.0735 C52.8257,16.6086 51.5561,23.422 49.4384,29.8556 C47.0137,36.4062 43.6239,42.27 38.8448,47.2571 C34.3728,52.1272 29.3596,56.5003 23.5711,59.7626 C17.7827,63.0249 11.4531,65.7903 5.07937,67.5176 C-1.41147,68.938 -8.13644,69.7444 -14.9056,69.5129 C-28.444,69.0497 -41.6181,64.9313 -53.0388,58.0346 C-58.9027,54.6447 -64.1968,49.9828 -68.3358,45.5835 C-72.8988,40.9944 -76.8479,36.1711 -80.6071,30.9238 C-87.8185,20.3121 -93.0422,7.53591 -95.269,-5.67991 C-97.1889,-19.0128 -96.3016,-32.3612 -92.3732,-45.1113 C-88.6347,-57.4374 -82.162,-69.048 -74.373,-79.0508 C-72.5024,-81.5223 -70.5148,-83.6867 -68.0304,-86.3923 L-66.8467,-87.8986 L-65.049,-89.639 C-64.0552,-90.7212 -62.7544,-91.9205 -61.7606,-93.0028 C-57.0544,-97.2588 -52.1141,-100.901 -46.7497,-104.353 C-36.3279,-111.14 -24.6626,-115.589 -12.836,-118.693 C10.9343,-124.593 35.7451,-123.154 58.0142,-115.471 C80.1662,-108.096 100.201,-94.2867 113.263,-75.709 C95.3044,-89.6065 74.7601,-98.2984 54.13,-101.683 Z " fill="#000000" fill-opacity="1.00" />			<path d="M71.5562,-10.8333 C65.5731,-50.3527 28.6861,-77.5393 -10.8333,-71.5562 C-50.3527,-65.5731 -77.5393,-28.6861 -71.5562,10.8333 C-65.5731,50.3527 -28.6861,77.5393 10.8333,71.5562 C50.3527,65.5731 77.5393,28.6861 71.5562,-10.8333 Z " fill="#000000" fill-opacity="1.00" />		</g>	</svg>