<?xml version="1.0" encoding="utf-8" ?>	<!-- Generator: Assembly 2.2 - http://assemblyapp.co -->	<svg version="1.1" xmlns="http://www.w3.org/2000/svg" xmlns:xlink="http://www.w3.org/1999/xlink" width="2048.00" height="2048.00" viewBox="0 0 2048.0 2048.0">		<g id="document" transform="matrix(1,0,0,1,1024.0,1024.0)">			<path d="M-1.63376e-06,996.151 C550.505,996.151 996.151,550.505 996.151,1.31014e-05 C996.151,-550.505 550.505,-996.151 1.84782e-05,-996.151 C-550.505,-996.151 -996.151,-550.505 -996.151,-7.01056e-06 C-996.151,550.505 -550.505,996.151 -1.63376e-06,996.151 Z " fill="#ff8a06" fill-opacity="1.00" stroke-width="16.62" stroke="#222326" stroke-linecap="square" stroke-linejoin="miter" />			<defs>				<filter id="qP2KsGly" x="-7.08%" y="-7.45%" width="140.20%" height="142.31%" filterUnits="objectBoundingBox">					<feOffset dx="146.71" dy="146.71" in="SourceAlpha" result="shadowOffsetOuter1" />					<feGaussianBlur stdDeviation="128.15" in="shadowOffsetOuter1" result="shadowBlurOuter1" />					<feFlood flood-color="#000000" flood-opacity="0.19" />					<feComposite in2="shadowBlurOuter1" operator="in" />					<feMerge>						<feMergeNode />						<feMergeNode in="SourceGraphic" />					</feMerge>				</filter>			</defs>			<path d="M485.135,735.363 L316.424,179.715 L780.381,-172.379 L197.225,-185.216 L6.50731,-735.363 L-184.21,-185.216 L-767.366,-172.379 L-303.409,179.715 L-472.121,735.363 L6.50731,403.441 L485.135,735.363 Z " fill="#ffe656" fill-opacity="1.00" filter="url(#qP2KsGly)" />		</g>	</svg>