<svg xmlns="http://www.w3.org/2000/svg" width="4096" height="4096"><path fill="#865f3e" d="M0 0h4096v4096H0z"/><path d="M496.108 1942.4c74.055 280.125 215.733 537.71 408.922 737.34 93.375 99.814 202.85 183.53 321.983 251.145 57.957 32.198 119.133 61.176 180.31 83.715 16.098 3.22 32.198 12.88 48.297 16.1l22.539 9.658c9.66 3.221 19.318 6.44 25.758 6.44 28.978 9.66 64.396 19.32 93.376 22.54 260.804 54.736 528.05 19.318 730.898-119.134 103.035-64.396 189.97-157.771 257.585-264.025 35.418-54.737 64.397-109.474 93.375-170.65 25.759-57.958 45.078-115.915 54.738-177.091 22.539-119.132 12.879-244.706-22.54-357.4-19.319-57.956-45.077-115.913-80.495-164.21-32.197-51.518-70.836-96.595-119.134-138.452-45.076-38.638-99.814-74.056-154.55-103.035-51.518-25.759-109.474-38.638-167.43-45.077-119.134-9.66-244.707 32.198-344.522 112.693-51.517 38.638-93.374 93.376-125.572 151.331-32.2 57.957-48.298 119.134-51.517 186.75 0 135.233 74.055 280.125 209.288 357.4-77.276-19.318-144.892-61.177-206.069-122.353-57.957-57.957-99.814-138.452-115.914-225.387-19.318-83.715-12.879-180.31 16.1-267.246 25.759-83.714 70.835-160.99 132.013-228.606 61.176-67.617 132.011-125.574 215.727-164.211 80.496-41.857 173.87-64.396 267.245-74.056 96.595-6.44 189.97 3.22 280.125 35.418 86.935 28.978 170.65 67.616 244.706 122.353 74.056 54.736 144.892 119.134 202.849 189.97 54.736 74.056 103.033 154.55 138.451 241.486 70.837 173.87 93.376 363.84 70.837 547.37-9.66 93.375-38.638 186.748-70.837 264.025-32.198 83.715-70.836 160.99-115.914 238.265-93.373 151.333-225.386 289.784-379.938 392.82-157.77 99.813-331.64 164.205-515.17 186.747-177.09 22.541-360.62 6.444-531.27-35.417-41.859-9.653-80.496-22.542-128.794-38.638l-28.979-9.66-32.197-12.878c-19.32-6.44-41.858-16.1-61.177-22.54-80.496-35.416-154.551-77.275-228.607-125.572-144.892-93.375-267.245-215.728-373.496-347.74-209.292-267.246-331.64-589.227-360.626-914.429-32.194-321.982 28.986-653.623 189.973-924.089-77.278 309.104-67.612 614.986 9.653 898.33zm3129.671 212.509c-74.055-280.125-215.728-537.71-408.917-737.34-93.375-99.813-202.85-183.529-321.983-251.146-57.957-32.197-119.133-61.176-180.31-83.714-16.098-3.22-32.197-12.88-48.297-16.1l-22.539-9.66c-9.658-3.219-19.318-6.438-25.758-6.438-28.978-9.66-64.396-19.32-93.375-22.54-260.805-54.737-528.05-19.319-730.899 119.134-103.035 64.396-189.97 157.771-257.585 264.026-35.418 54.736-64.397 109.474-93.375 170.65-25.758 57.957-45.078 115.913-54.738 177.09-22.537 119.133-12.879 244.706 22.54 357.4 19.319 57.957 45.077 115.914 80.495 164.211 32.199 51.517 70.836 96.595 119.134 138.452 45.078 38.637 99.814 74.055 154.551 103.035 51.517 25.758 109.474 38.637 167.43 45.076 119.134 9.66 244.707-32.197 344.521-112.693 51.517-38.638 93.375-93.375 125.573-151.332 32.198-57.956 48.297-119.133 51.518-186.75 0-135.232-74.057-280.123-209.29-357.4 77.277 19.32 144.892 61.178 206.069 122.355 54.738 61.175 99.815 138.451 115.914 225.386 19.318 83.715 12.88 180.31-16.099 267.245-25.76 83.715-70.836 160.992-132.012 228.607-61.177 67.617-132.013 125.574-215.728 164.212-80.496 41.857-173.871 64.396-267.246 74.055-96.594 6.44-189.97-3.22-280.123-35.418-86.937-28.978-170.652-67.617-244.708-122.353-74.055-54.737-144.892-119.133-202.849-189.97-54.736-74.055-103.033-154.551-138.451-241.486-70.837-173.87-93.375-363.84-70.837-547.369 9.66-93.375 38.638-186.75 70.837-264.025 32.198-83.716 70.836-160.991 115.914-238.268 93.374-151.33 225.386-289.783 379.938-392.817 157.771-99.814 331.642-164.204 515.171-186.746 177.09-22.542 360.62-6.444 531.27 35.417 41.858 9.653 80.495 22.541 128.793 38.636l25.758 6.439 32.199 12.879c19.32 6.44 41.858 16.099 61.176 22.539 80.496 35.418 154.552 77.275 228.608 125.572 144.892 93.376 267.244 215.729 373.502 347.741 209.292 267.245 331.639 589.228 360.611 914.43 32.209 321.98-28.972 653.623-189.958 924.087 74.055-305.882 67.61-614.986-6.445-895.11z"/><path d="M1335.81 3387.9c281.669 46.214 570.302 22.56 827.571-70.748 127.338-43.76 246.685-108.475 355.446-188.358 52.285-39.142 102.972-82.476 147.87-128.402 9.377-13.178 24.544-23.763 33.921-36.94l17.76-16.375c6.784-7.387 13.568-14.775 16.162-20.566 20.352-22.163 43.299-50.117 57.862-74.874 154.228-212.442 229.993-466.974 187.194-705.099-16.41-118.564-65.355-234.323-133.658-337.899-34.952-53.884-72.495-101.978-115.828-152.664-41.736-46.495-86.064-87.202-137.177-120.52-98.033-68.234-214.821-110.111-330.402-123.646-59.887-5.968-122.365-6.145-180.049 6.25-59.282 8.205-115.368 24.792-172.448 51.36-52.888 24.971-106.773 59.92-154.867 97.465-43.902 35.946-78.818 82.867-107.944 132.381-56.655 103.22-69.586 232.973-37.405 355.125 13.993 61.875 46.352 121.548 85.495 173.834 39.14 52.284 87.66 91.393 147.155 121.513 121.584 54.453 281.671 46.213 405.6-44.254-48.485 61.696-113.344 105.634-192.98 136.003-75.443 28.77-164.67 33.99-249.312 13.46-83.045-16.34-167.297-61.024-233.789-122.083-64.894-56.867-116.22-128.51-152.378-210.739-36.158-82.228-59.742-169.251-60.772-260.074-5.22-89.226 12.115-182.252 41.028-270.092 33.104-89.437 79.388-169.5 144.637-237.59 61.059-66.491 129.506-126.199 208.537-170.74 79.032-44.541 165.451-82.298 252.475-105.883 88.621-19.392 180.44-30.403 272.861-27.241 184.845 6.324 364.715 62.553 520.646 156.717 80.06 46.282 152.342 109.934 208.853 169.998 62.302 62.657 116.22 128.512 167.546 200.155 98.458 144.885 169.78 319.322 200.184 499.762 26.213 182.039 14.098 364.289-39.538 538.37-51.043 168.293-139.417 326.815-245.764 463.388-25.538 33.742-52.676 63.295-86.597 100.236l-20.353 22.163-24.544 23.762c-13.568 14.777-31.329 31.152-44.897 45.927-64.256 58.11-131.707 107.837-204.949 154.967-142.292 92.679-301.563 153.409-463.035 195.789-324.544 80.554-663.294 60.907-967.341-43.991-302.45-100.694-575.984-289.235-754.325-542.883 246.788 193.94 525.687 308.422 811.548 353.036zM2787.054 659.688c-281.67-46.216-570.303-22.555-827.572 70.746-127.338 43.76-246.685 108.476-355.446 188.359-52.285 39.141-102.972 82.476-147.87 128.401-9.377 13.178-24.544 23.763-33.921 36.94l-17.76 16.375c-6.785 7.388-13.57 14.776-16.162 20.566-20.353 22.164-43.299 50.117-57.861 74.875-154.228 212.442-229.993 466.974-187.194 705.098 16.408 118.565 65.354 234.324 133.658 337.9 34.95 53.882 72.495 101.976 115.828 152.663 41.735 46.496 86.063 87.202 137.176 120.519 98.034 68.234 214.822 110.113 330.403 123.647 59.885 5.968 122.364 6.146 180.048-6.25 59.282-8.204 115.368-24.792 172.448-51.36 52.889-24.97 106.773-59.922 154.867-97.466 43.902-35.945 78.818-82.866 107.945-132.38 56.654-103.219 69.584-232.972 37.404-355.125-13.994-61.875-46.352-121.548-85.494-173.833-39.142-52.286-87.661-91.393-147.157-121.514-121.583-54.452-281.67-46.213-405.598 44.255 48.484-61.698 113.343-105.635 192.978-136.004 77.043-24.578 164.67-33.991 249.313-13.46 83.044 16.34 167.297 61.024 233.789 122.083 64.894 56.868 116.22 128.511 152.378 210.739 36.158 82.228 59.743 169.251 60.77 260.075 5.222 89.226-12.112 182.251-41.026 270.091-33.105 89.438-79.387 169.498-144.638 237.589-61.058 66.493-129.505 126.2-208.537 170.742-79.03 44.541-165.451 82.298-252.474 105.881-88.621 19.393-180.44 30.404-272.861 27.243-184.844-6.324-364.715-62.554-520.645-156.717-80.062-46.284-152.344-109.934-208.855-170-62.3-62.656-116.219-128.51-167.545-200.153-98.46-144.885-169.78-319.323-200.183-499.763-26.213-182.038-14.099-364.288 39.537-538.37 51.043-168.292 139.417-326.815 245.763-463.387 25.54-33.744 52.677-63.295 86.597-100.236l16.162-20.566 24.544-23.762c13.569-14.776 31.33-31.15 44.898-45.927 64.255-58.109 131.707-107.837 204.949-154.968 142.292-92.665 301.562-153.41 463.035-195.79 324.544-80.554 663.294-60.907 967.341 43.992 302.449 100.693 575.99 289.236 754.33 542.884-245.194-189.747-525.692-308.42-807.362-354.632z"/><path d="M3024.98 1900.09c-81.689-539.572-585.32-910.76-1124.89-829.07-539.572 81.689-910.76 585.32-829.07 1124.89 81.689 539.572 585.32 910.76 1124.89 829.07 539.572-81.689 910.76-585.32 829.07-1124.89z"/></svg>