<svg xmlns="http://www.w3.org/2000/svg" xmlns:xlink="http://www.w3.org/1999/xlink" width="4096" height="4096" version="1.1" viewBox="0 0 4096 4096"><g id="document"><path fill="#ff8a06" fill-opacity="1" stroke="#222326" stroke-linecap="square" stroke-linejoin="miter" stroke-width="6.96" d="M-2.39321e-07,145.921 C80.6403,145.921 145.921,80.6403 145.921,1.91916e-06 C145.921,-80.6403 80.6403,-145.921 2.70677e-06,-145.921 C-80.6403,-145.921 -145.921,-80.6403 -145.921,-1.02694e-06 C-145.921,80.6403 -80.6403,145.921 -2.39321e-07,145.921 Z" transform="scale(13.653333333333334 13.653333333333334) translate(150.0 150.0)"/><path fill="#fccf34" fill-opacity="1" d="M71.0648,107.719 L46.3511,26.3254 L114.314,-25.2509 L28.8904,-27.1313 L0.953219,-107.719 L-26.9839,-27.1313 L-112.407,-25.2509 L-44.4447,26.3254 L-69.1583,107.719 L0.953219,59.0978 L71.0648,107.719 Z" transform="scale(13.653333333333334 13.653333333333334) translate(150.0 150.0)"/></g></svg>