<?xml version="1.0" encoding="utf-8" ?>	<!-- Generator: Assembly 2.4 - http://assemblyapp.co -->	<svg version="1.1" xmlns="http://www.w3.org/2000/svg" xmlns:xlink="http://www.w3.org/1999/xlink" width="4096.00" height="4096.00" viewBox="0 0 4096.0 4096.0">		<g id="document" transform="scale(13.653333333333334 13.653333333333334) translate(150.0 150.0)">			<path d="M143.966,0.187978 C143.966,-79.426 79.426,-143.966 -0.187977,-143.966 C-79.8019,-143.966 -144.342,-79.426 -144.342,0.187977 C-144.342,79.8019 -79.8019,144.342 -0.187978,144.342 C79.426,144.342 143.966,79.8019 143.966,0.187978 Z " fill="#8e369b" fill-opacity="1.00" />			<path d="M-0.187978,-142.101 C-36.5921,-142.101 -69.3125,-128.666 -94.232,-105.48 C-69.5292,-83.1605 -36.3754,-68.8589 -0.187978,-68.8589 C35.9995,-68.8589 68.9365,-82.5104 93.856,-105.48 C69.1532,-127.799 35.7828,-142.101 -0.187978,-142.101 Z " fill="#ff56ad" fill-opacity="1.00" stroke-width="3.66" stroke="#ff56ad" stroke-linecap="square" stroke-linejoin="miter" />			<path d="M-53.8268,-93.645 L-53.8268,-117.293 L-46.4261,-117.293 C-43.0578,-117.293 -40.6154,-116.238 -39.0989,-114.128 C-37.5824,-112.017 -36.8242,-109.054 -36.8242,-105.239 C-36.8242,-104.246 -36.929,-103.17 -37.1387,-102.01 C-37.5021,-100.067 -38.0961,-98.4739 -38.9207,-97.23 C-39.955,-95.6786 -41.2827,-94.6304 -42.904,-94.0853 C-43.8125,-93.7918 -44.9726,-93.645 -46.3842,-93.645 L-53.8268,-93.645 Z M-58.0197,-90.081 L-45.5875,-90.081 C-40.3044,-90.081 -36.5796,-92.4151 -34.4132,-97.0833 C-33.1833,-99.7248 -32.5683,-102.681 -32.5683,-105.951 C-32.5683,-110.186 -33.6096,-113.66 -35.6921,-116.371 C-38.0262,-119.376 -41.3107,-120.878 -45.5456,-120.878 L-58.0197,-120.878 L-58.0197,-90.081 Z M-21.0376,-102.702 L-16.0689,-116.308 L-11.3937,-102.702 L-21.0376,-102.702 Z M-29.8429,-90.081 L-25.566,-90.081 L-22.2326,-99.3055 L-10.052,-99.3055 L-6.9282,-90.081 L-2.35785,-90.081 L-13.5322,-120.878 L-18.2493,-120.878 L-29.8429,-90.081 Z M6.11198,-106.769 L6.11198,-117.293 L16.3009,-117.293 C17.7266,-117.293 18.8656,-117.084 19.7182,-116.665 C21.3116,-115.868 22.1082,-114.372 22.1082,-112.178 C22.1082,-110.137 21.5387,-108.726 20.3996,-107.943 C19.2605,-107.16 17.7126,-106.769 15.7559,-106.769 L6.11198,-106.769 Z M1.93996,-90.081 L6.11198,-90.081 L6.11198,-103.289 L15.6091,-103.289 C17.3142,-103.289 18.5652,-103.1 19.3618,-102.723 C20.7595,-102.038 21.5072,-100.689 21.6051,-98.6766 L21.8566,-93.5402 C21.9126,-92.3382 21.9824,-91.5276 22.0663,-91.1083 C22.1502,-90.689 22.262,-90.3465 22.4017,-90.081 L27.5172,-90.081 L27.5172,-90.7728 C26.8743,-91.0524 26.427,-91.6813 26.1754,-92.6597 C26.0217,-93.2327 25.9238,-94.1062 25.8819,-95.2803 L25.7352,-99.4104 C25.6653,-101.199 25.3263,-102.492 24.7184,-103.289 C24.1104,-104.086 23.2054,-104.728 22.0034,-105.218 C23.3731,-105.93 24.4388,-106.874 25.2006,-108.048 C25.9623,-109.222 26.3431,-110.731 26.3431,-112.576 C26.3431,-116.112 24.8966,-118.537 22.0034,-119.851 C20.4799,-120.536 18.5442,-120.878 16.1961,-120.878 L1.93996,-120.878 L1.93996,-90.081 Z M32.4439,-90.081 L36.5111,-90.081 L36.5111,-100.815 L41.4379,-105.532 L52.2139,-90.081 L57.6438,-90.081 L44.4778,-108.467 L57.2874,-120.878 L51.522,-120.878 L36.5111,-105.868 L36.5111,-120.878 L32.4439,-120.878 L32.4439,-90.081 Z " fill="#ffffff" fill-opacity="1.00" />			<path d="M-41.2637,9.2049 L-41.2637,18.3363 L-26.7912,18.3363 C-25.4129,22.1267 -24.2069,26.434 -23.1731,30.9136 L-46.2601,30.9136 L-46.2601,40.5619 L47.1216,40.5619 L47.1216,30.9136 L23.5177,30.9136 C25.2406,26.7786 26.7912,22.6436 27.9973,18.3363 L41.7806,18.3363 L41.7806,9.2049 L4.738,9.2049 C3.35967,5.4145 1.80906,1.79639 0.258436,-1.30485 L-12.3188,0.76264 C-10.5959,3.17471 -8.87298,6.10366 -7.32237,9.2049 L-41.2637,9.2049 Z M11.8019,30.9136 L-11.6296,30.9136 C-12.6634,26.434 -13.5248,22.299 -14.5586,18.3363 L15.9369,18.3363 C14.9032,22.6436 13.5248,26.7786 11.8019,30.9136 Z M-34.0275,48.6595 L-34.0275,92.766 L34.372,92.766 L34.372,48.6595 L-34.0275,48.6595 Z M22.6563,83.8069 L-22.3117,83.8069 L-22.3117,74.8478 L22.6563,74.8478 L22.6563,83.8069 Z M-22.3117,66.5778 L-22.3117,57.7909 L22.6563,57.7909 L22.6563,66.5778 L-22.3117,66.5778 Z M-59.6988,-22.8412 L-19.555,-22.8412 L-19.555,-13.3652 L-59.6988,-13.3652 L-59.6988,-22.8412 Z M-19.555,-31.8004 L-59.6988,-31.8004 L-59.6988,-41.1041 L-19.555,-41.1041 L-19.555,-31.8004 Z M18.5213,-22.6689 L59.8711,-22.6689 L59.8711,-13.3652 L18.5213,-13.3652 L18.5213,-22.6689 Z M59.8711,-31.6281 L18.5213,-31.6281 L18.5213,-40.7595 L59.8711,-40.7595 L59.8711,-31.6281 Z M-7.49466,-50.5801 L-71.9315,-50.5801 L-71.9315,100.864 L-59.6988,100.864 L-59.6988,-3.88922 L-7.49466,-3.88922 L-7.49466,-50.5801 Z M59.8711,-4.06151 L59.8711,80.7056 C59.8711,85.7021 57.6313,88.2864 53.3241,88.2864 C48.6722,88.2864 43.6758,87.9419 38.507,87.5973 L41.6083,99.3131 C46.9493,99.4854 52.2903,99.6577 57.6313,99.6577 C67.1073,99.6577 71.9315,94.6612 71.9315,84.6683 L71.9315,-50.4078 L6.6332,-50.4078 L6.6332,-4.06151 L59.8711,-4.06151 Z " fill="#ffffff" fill-opacity="1.00" />		</g>	</svg>