<?xml version="1.0" encoding="utf-8" ?>	<!-- Generator: Assembly 2.2 - http://assemblyapp.co -->	<svg version="1.1" xmlns="http://www.w3.org/2000/svg" xmlns:xlink="http://www.w3.org/1999/xlink" width="2048.00" height="2048.00" viewBox="0 0 2048.0 2048.0">		<g id="document" transform="matrix(1,0,0,1,1024.0,1024.0)">			<path d="M982.807,1.28326 C982.807,-542.215 542.215,-982.807 -1.28326,-982.807 C-544.781,-982.807 -985.373,-542.215 -985.373,1.28326 C-985.373,544.781 -544.781,985.373 -1.28326,985.373 C542.215,985.373 982.807,544.781 982.807,1.28326 Z " fill="#8e369b" fill-opacity="1.00" />			<path d="M-1.28326,-970.073 C-249.802,-970.073 -473.173,-878.358 -643.29,-720.075 C-474.653,-567.709 -248.323,-470.077 -1.28326,-470.077 C245.756,-470.077 470.607,-563.271 640.724,-720.075 C472.086,-872.441 244.277,-970.073 -1.28326,-970.073 Z " fill="#ff56ad" fill-opacity="1.00" stroke-width="24.97" stroke="#ff56ad" stroke-linecap="square" stroke-linejoin="miter" />			<path d="M-269.706,-641.859 L-269.706,-803.3 L-219.184,-803.3 C-196.19,-803.3 -179.516,-796.096 -169.164,-781.688 C-158.811,-767.281 -153.635,-747.053 -153.635,-721.005 C-153.635,-714.231 -154.351,-706.884 -155.782,-698.965 C-158.263,-685.702 -162.318,-674.825 -167.947,-666.333 C-175.008,-655.742 -184.072,-648.586 -195.14,-644.865 C-201.342,-642.861 -209.261,-641.859 -218.898,-641.859 L-269.706,-641.859 Z M-298.33,-617.529 L-213.46,-617.529 C-177.393,-617.529 -151.965,-633.463 -137.176,-665.331 C-128.78,-683.364 -124.582,-703.544 -124.582,-725.871 C-124.582,-754.782 -131.69,-778.492 -145.907,-797.002 C-161.841,-817.516 -184.263,-827.773 -213.173,-827.773 L-298.33,-827.773 L-298.33,-617.529 Z M-71.627,-658.318 C-71.627,-668.146 -67.6674,-675.302 -59.748,-679.786 C-55.0727,-682.458 -48.0598,-684.414 -38.7093,-685.654 L-23.1092,-687.658 C-18.3385,-688.231 -13.4724,-689.185 -8.51085,-690.52 C-3.54934,-691.856 0.505747,-693.526 3.6544,-695.53 L3.6544,-674.777 C3.6544,-658.939 -3.50163,-647.537 -17.8137,-640.571 C-26.3055,-636.373 -35.0836,-634.274 -44.1479,-634.274 C-51.5901,-634.274 -58.0306,-636.421 -63.4692,-640.715 C-68.9077,-645.008 -71.627,-650.876 -71.627,-658.318 Z M-50.3021,-705.262 C-64.7095,-703.449 -76.35,-698.631 -85.2235,-690.807 C-94.097,-682.983 -98.5337,-671.963 -98.5337,-657.746 C-98.5337,-644.77 -94.0254,-633.964 -85.0088,-625.329 C-75.9922,-616.694 -64.3756,-612.377 -50.1589,-612.377 C-38.3276,-612.377 -27.4982,-614.905 -17.6706,-619.962 C-7.84295,-625.019 -0.30527,-630.982 4.94248,-637.852 C5.80121,-631.746 7.28012,-627.023 9.37922,-623.683 C13.3866,-617.386 19.827,-614.237 28.7005,-614.237 C32.3262,-614.237 35.1886,-614.38 37.2877,-614.667 C39.3868,-614.953 42.4401,-615.668 46.4475,-616.813 L46.4475,-635.848 C44.8254,-635.562 43.2988,-635.348 41.8676,-635.204 C40.4364,-635.061 39.1483,-634.99 38.0033,-634.99 C34.473,-634.99 32.1593,-635.801 31.062,-637.423 C29.9647,-639.045 29.4161,-641.192 29.4161,-643.863 L29.4161,-732.169 C29.4161,-746.671 23.8344,-757.358 12.671,-764.228 C1.41218,-771.097 -13.2338,-774.532 -31.267,-774.532 C-46.8195,-774.532 -60.4875,-770.835 -72.2711,-763.44 C-84.0547,-756.046 -90.185,-742.903 -90.6621,-724.011 L-66.6178,-724.011 C-65.6637,-731.93 -63.6123,-737.893 -60.4636,-741.901 C-54.8342,-749.152 -45.2928,-752.778 -31.8395,-752.778 C-20.199,-752.778 -11.254,-750.798 -5.0044,-746.838 C1.2452,-742.879 4.37,-736.51 4.37,-727.732 C4.37,-723.438 3.79752,-720.146 2.65256,-717.857 C0.648867,-713.658 -3.3108,-711.178 -9.22645,-710.414 L-50.3021,-705.262 Z M72.3523,-617.529 L98.114,-617.529 L98.114,-705.691 C98.114,-716.568 101.597,-726.181 108.562,-734.53 C115.527,-742.879 125.498,-747.053 138.474,-747.053 C140.001,-747.053 141.408,-747.005 142.696,-746.91 C143.984,-746.815 145.391,-746.624 146.918,-746.338 L146.918,-773.53 C144.151,-773.817 142.195,-774.008 141.05,-774.103 C139.905,-774.198 139.094,-774.246 138.617,-774.246 C128.408,-774.246 119.391,-770.549 111.567,-763.154 C103.743,-755.76 98.8296,-749.486 96.8259,-744.334 L96.8259,-770.811 L72.3523,-770.811 L72.3523,-617.529 Z M168.672,-617.529 L193.432,-617.529 L193.432,-675.063 L215.044,-694.814 L262.846,-617.529 L295.764,-617.529 L233.792,-713.42 L292.472,-770.811 L259.554,-770.811 L193.432,-705.691 L193.432,-827.773 L168.672,-827.773 L168.672,-617.529 Z " fill="#ffffff" fill-opacity="1.00" />			<path d="M-281.693,62.8388 L-281.693,125.176 L-182.895,125.176 C-173.486,151.052 -165.252,180.456 -158.195,211.037 L-315.802,211.037 L-315.802,276.902 L321.683,276.902 L321.683,211.037 L160.548,211.037 C172.309,182.808 182.895,154.58 191.128,125.176 L285.222,125.176 L285.222,62.8388 L32.3448,62.8388 C22.9354,36.963 12.3498,12.2633 1.76426,-8.90779 L-84.0964,5.20629 C-72.3346,21.6727 -60.5729,41.6676 -49.9874,62.8388 L-281.693,62.8388 Z M80.5678,211.037 L-79.3917,211.037 C-86.4487,180.456 -92.3296,152.228 -99.3866,125.176 L108.796,125.176 C101.739,154.58 92.3296,182.808 80.5678,211.037 Z M-232.294,332.182 L-232.294,633.283 L234.647,633.283 L234.647,332.182 L-232.294,332.182 Z M154.667,572.122 L-152.314,572.122 L-152.314,510.961 L154.667,510.961 L154.667,572.122 Z M-152.314,454.504 L-152.314,394.52 L154.667,394.52 L154.667,454.504 L-152.314,454.504 Z M-407.544,-155.929 L-133.496,-155.929 L-133.496,-91.2399 L-407.544,-91.2399 L-407.544,-155.929 Z M-133.496,-217.09 L-407.544,-217.09 L-407.544,-280.604 L-133.496,-280.604 L-133.496,-217.09 Z M126.439,-154.753 L408.72,-154.753 L408.72,-91.2399 L126.439,-91.2399 L126.439,-154.753 Z M408.72,-215.914 L126.439,-215.914 L126.439,-278.251 L408.72,-278.251 L408.72,-215.914 Z M-51.1635,-345.293 L-491.052,-345.293 L-491.052,688.563 L-407.544,688.563 L-407.544,-26.5504 L-51.1635,-26.5504 L-51.1635,-345.293 Z M408.72,-27.7266 L408.72,550.951 C408.72,585.06 393.43,602.702 364.026,602.702 C332.269,602.702 298.16,600.35 262.875,597.997 L284.046,677.977 C320.507,679.153 356.968,680.33 393.43,680.33 C458.119,680.33 491.052,646.221 491.052,578.003 L491.052,-344.117 L45.2827,-344.117 L45.2827,-27.7266 L408.72,-27.7266 Z " fill="#ffffff" fill-opacity="1.00" />		</g>	</svg>