<svg xmlns="http://www.w3.org/2000/svg" width="4096" height="4096"><path fill="#8e369b" d="M4013.616 2050.567c0-1086.997-881.186-1968.183-1968.183-1968.183C958.438 82.384 77.251 963.57 77.251 2050.567c0 1086.995 881.187 1968.182 1968.182 1968.182 1086.997 0 1968.183-881.187 1968.183-1968.182z"/><path fill="#ff56ad" stroke="#ff56ad" stroke-linecap="square" stroke-width="49.971" d="M2045.433 107.848c-497.037 0-943.78 183.432-1284.014 499.998 337.276 304.736 789.936 500 1284.014 500 494.08 0 943.78-186.388 1284.014-500-337.275-304.728-792.893-499.998-1284.014-499.998z"/><path fill="#fff" d="M1313.085 769.434V446.56h101.044c45.989 0 79.335 14.404 100.04 43.212 20.706 28.823 31.058 69.277 31.058 121.365 0 13.558-1.43 28.249-4.294 44.086-4.962 26.529-13.072 48.28-24.33 65.263-14.122 21.182-32.25 35.494-54.386 42.936-12.404 4.007-28.243 6.012-47.516 6.012h-101.616zm-57.247 48.66h169.74c72.133 0 122.989-31.868 152.567-95.605 16.792-36.065 25.19-76.427 25.19-121.073 0-57.822-14.218-105.254-42.651-142.268-31.868-41.028-76.713-61.536-134.533-61.536h-170.313v420.482zm504.929-172.319l67.839-185.767 63.832 185.767h-131.671zm-120.222 172.32h58.394l45.512-125.946h166.306l42.65 125.945h62.4L1863.24 397.612h-64.404l-158.291 420.482zm490.904-227.848V446.56h139.113c19.465 0 35.016 2.853 46.657 8.574 21.755 10.882 32.632 31.307 32.632 61.262 0 27.867-7.776 47.132-23.328 57.822-15.553 10.69-36.687 16.03-63.402 16.03h-131.672zm-56.962 227.847h56.962V637.761h129.667c23.28 0 40.36 2.58 51.237 7.728 19.083 9.352 29.292 27.77 30.629 55.246l3.433 70.13c.765 16.41 1.718 27.478 2.864 33.203 1.145 5.725 2.672 10.401 4.579 14.026h69.844v-9.445c-8.778-3.818-14.885-12.404-18.32-25.763-2.1-7.823-3.436-19.75-4.008-35.78l-2.003-56.39c-.954-24.42-5.583-42.073-13.882-52.955-8.302-10.882-20.658-19.647-37.07-26.337 18.702-9.722 33.252-22.61 43.653-38.64 10.4-16.028 15.6-36.631 15.6-61.822 0-48.278-19.75-81.387-59.252-99.328-20.801-9.352-47.23-14.022-79.29-14.022h-194.643v420.482zm416.48 0h55.531V671.54l67.267-64.403 147.129 210.958h74.136l-179.76-251.03 174.894-169.452h-78.717L2546.498 602.55V397.612h-55.53v420.482zM1484.613 2173.678v124.674h197.598c18.818 51.751 35.284 110.56 49.399 171.722h-315.215v131.731h1274.972v-131.731h-322.272c23.523-56.457 44.694-112.913 61.161-171.722h188.188v-124.674H2112.69c-18.818-51.752-39.99-101.151-61.16-143.494l-171.722 28.229c23.524 32.932 47.047 72.922 68.218 115.265h-463.412zm724.522 296.396h-319.918c-14.115-61.162-25.876-117.618-39.99-171.722h416.365c-14.114 58.809-32.933 115.265-56.457 171.722zm-625.724 242.29v602.201h933.881v-602.2h-933.88zm773.923 479.88h-613.963v-122.322h613.963v122.322zm-613.963-235.235v-119.97h613.963v119.97h-613.963zM1232.912 1736.14h548.097v129.38h-548.097v-129.38zm548.097-122.322h-548.097v-127.027h548.097v127.027zm519.868 124.675h564.563v127.026h-564.563v-127.026zm564.563-122.323h-564.563v-124.674h564.563v124.674zm-919.767-258.758h-879.778V3425.13h167.017V1994.9h712.76v-637.487zm919.767 635.134V3149.9c0 68.22-30.58 103.504-89.388 103.504-63.514 0-131.732-4.704-202.303-9.409l42.343 159.96c72.922 2.352 145.845 4.705 218.767 4.705 129.38 0 195.246-68.22 195.246-204.655v-1844.24h-891.54v632.782h726.875z"/></svg>