<svg xmlns="http://www.w3.org/2000/svg" width="4096" height="4096"><path d="M4044.431 2048c0-1086.995-881.178-1968.183-1968.173-1968.183S108.08 961.005 108.08 2048s881.183 1968.183 1968.178 1968.183c1086.995 0 1968.173-881.188 1968.173-1968.183z" fill="#5d412b"/><path d="M1098.834 818.094h310.858v-50.091h-255.327V625.459h232.142V576.8h-232.142V449.126h251.033v-51.514h-306.564v420.482zm469.721-172.319l67.84-185.767 63.831 185.767h-131.671zm-120.22 172.32h58.392l45.512-125.946h166.307l42.65 125.945h62.4L1671.03 397.612h-64.404l-158.291 420.482zm490.903-227.848V446.56h139.113c19.465 0 35.017 2.853 46.657 8.574 21.755 10.882 32.632 31.307 32.632 61.262 0 27.867-7.776 47.132-23.329 57.822-15.552 10.69-36.686 16.03-63.402 16.03h-131.671zm-56.962 227.847h56.962V637.761h129.667c23.281 0 40.36 2.58 51.237 7.728 19.083 9.352 29.292 27.77 30.628 55.246l3.435 70.13c.763 16.41 1.718 27.478 2.863 33.203 1.144 5.725 2.671 10.401 4.58 14.026h69.842v-9.445c-8.778-3.818-14.884-12.404-18.319-25.763-2.1-7.823-3.435-19.75-4.007-35.78l-2.004-56.39c-.955-24.42-5.582-42.073-13.883-52.955-8.301-10.882-20.657-19.647-37.068-26.337 18.7-9.722 33.252-22.61 43.652-38.64 10.4-16.028 15.6-36.631 15.6-61.822 0-48.278-19.751-81.387-59.252-99.328-20.8-9.352-47.23-14.022-79.29-14.022h-194.643v420.482zm722.473-420.482v50.08H2463.06v370.402h-57.822V447.693H2263.55v-50.08h341.2zm53.526 420.482h57.535V621.445H2934.5v196.65h57.533V397.611H2934.5v173.739H2715.81V397.612h-57.535v420.482zM3048.923 1787.893l-505.755 155.255V1333.89h-164.663v661.01l-343.443 105.855v-526.926h-164.665v578.677l-197.596 61.16v164.665l197.596-61.161v896.244c0 155.255 77.628 235.24 235.235 235.24h743.342c87.036 0 150.55-23.524 190.54-68.222 47.047-51.752 77.627-195.246 94.094-432.833l-157.607-49.4c-9.41 190.541-28.229 305.806-54.104 343.444-18.819 30.58-54.104 47.046-103.504 47.046h-661.009c-82.332 0-122.322-37.636-122.322-108.208v-912.71l343.443-103.503v839.788h164.663v-889.187l343.443-103.503c-2.353 319.919-9.409 505.754-21.17 555.153-14.114 51.752-54.105 77.628-117.618 77.628-28.228 0-61.161-2.353-96.447-4.705l47.048 167.017h14.114c176.425 0 277.576-51.752 301.1-150.551 23.523-103.503 35.285-392.84 35.285-868.015zM1703.382 2787.64c-89.39 42.343-183.483 82.333-277.578 117.618v-780.979h244.644v-164.664h-244.644V1352.71h-167.016v606.905H990.62v164.664h268.168v837.436c-98.798 28.228-197.598 54.104-296.396 75.275l42.343 169.368c249.348-65.865 482.23-150.55 698.647-251.7v-167.018z" fill="#fff"/></svg>