<?xml version="1.0" encoding="utf-8" ?>	<!-- Generator: Assembly 2.4 - http://assemblyapp.co -->	<svg version="1.1" xmlns="http://www.w3.org/2000/svg" xmlns:xlink="http://www.w3.org/1999/xlink" width="4096.00" height="4096.00" viewBox="0 0 4096.0 4096.0">		<g id="document" transform="scale(13.653333333333334 13.653333333333334) translate(150.0 150.0)">			<path d="M146.223,1.94324e-07 C146.223,-79.6139 81.6836,-144.154 2.06969,-144.154 C-77.5442,-144.154 -142.084,-79.6139 -142.084,-1.94324e-07 C-142.084,79.6139 -77.5442,144.154 2.06969,144.154 C81.6836,144.154 146.223,79.6139 146.223,1.94324e-07 Z " fill="#5d412b" fill-opacity="1.00" />			<path d="M-69.519,-90.081 L-46.7511,-90.081 L-46.7511,-93.7498 L-65.4518,-93.7498 L-65.4518,-104.19 L-48.4492,-104.19 L-48.4492,-107.754 L-65.4518,-107.754 L-65.4518,-117.105 L-47.0656,-117.105 L-47.0656,-120.878 L-69.519,-120.878 L-69.519,-90.081 Z M-35.1156,-102.702 L-30.1469,-116.308 L-25.4717,-102.702 L-35.1156,-102.702 Z M-43.9208,-90.081 L-39.644,-90.081 L-36.3106,-99.3055 L-24.1299,-99.3055 L-21.0062,-90.081 L-16.4358,-90.081 L-27.6101,-120.878 L-32.3272,-120.878 L-43.9208,-90.081 Z M-7.96597,-106.769 L-7.96597,-117.293 L2.22299,-117.293 C3.6486,-117.293 4.7877,-117.084 5.64027,-116.665 C7.23361,-115.868 8.03028,-114.372 8.03028,-112.178 C8.03028,-110.137 7.46073,-108.726 6.32163,-107.943 C5.18254,-107.16 3.63463,-106.769 1.6779,-106.769 L-7.96597,-106.769 Z M-12.138,-90.081 L-7.96597,-90.081 L-7.96597,-103.289 L1.53115,-103.289 C3.23629,-103.289 4.4872,-103.1 5.28387,-102.723 C6.68153,-102.038 7.42928,-100.689 7.52712,-98.6766 L7.7787,-93.5402 C7.8346,-92.3382 7.90449,-91.5276 7.98835,-91.1083 C8.0722,-90.689 8.18402,-90.3465 8.32378,-90.081 L13.4392,-90.081 L13.4392,-90.7728 C12.7963,-91.0524 12.3491,-91.6813 12.0975,-92.6597 C11.9437,-93.2327 11.8459,-94.1062 11.804,-95.2803 L11.6572,-99.4104 C11.5873,-101.199 11.2484,-102.492 10.6404,-103.289 C10.0324,-104.086 9.12744,-104.728 7.92545,-105.218 C9.29516,-105.93 10.3609,-106.874 11.1226,-108.048 C11.8843,-109.222 12.2652,-110.731 12.2652,-112.576 C12.2652,-116.112 10.8186,-118.537 7.92545,-119.851 C6.402,-120.536 4.46624,-120.878 2.11816,-120.878 L-12.138,-120.878 L-12.138,-90.081 Z M40.7775,-120.878 L40.7775,-117.21 L30.3999,-117.21 L30.3999,-90.081 L26.1649,-90.081 L26.1649,-117.21 L15.7873,-117.21 L15.7873,-120.878 L40.7775,-120.878 Z M44.6979,-90.081 L48.9119,-90.081 L48.9119,-104.484 L64.9291,-104.484 L64.9291,-90.081 L69.143,-90.081 L69.143,-120.878 L64.9291,-120.878 L64.9291,-108.153 L48.9119,-108.153 L48.9119,-120.878 L44.6979,-120.878 L44.6979,-90.081 Z " fill="#ffffff" fill-opacity="1.00" />			<path d="M73.3098,-19.0508 L36.2672,-7.67962 L36.2672,-52.303 L24.2069,-52.303 L24.2069,-3.88922 L-0.9476,3.86388 L-0.9476,-34.7293 L-13.008,-34.7293 L-13.008,7.65428 L-27.4804,12.1338 L-27.4804,24.1942 L-13.008,19.7146 L-13.008,85.3575 C-13.008,96.7287 -7.32237,102.587 4.22113,102.587 L58.6651,102.587 C65.0398,102.587 69.6917,100.864 72.6206,97.5902 C76.0665,93.7998 78.3062,83.29 79.5123,65.8886 L67.9688,62.2705 C67.2796,76.2261 65.9013,84.6683 64.0061,87.425 C62.6278,89.6648 60.0434,90.8708 56.4253,90.8708 L8.01153,90.8708 C1.98135,90.8708 -0.9476,88.1142 -0.9476,82.9454 L-0.9476,16.0965 L24.2069,8.51573 L24.2069,70.0236 L36.2672,70.0236 L36.2672,4.89762 L61.4217,-2.68318 C61.2494,20.7484 60.7326,34.3594 59.8711,37.9775 C58.8374,41.7679 55.9084,43.6631 51.2566,43.6631 C49.1891,43.6631 46.777,43.4908 44.1926,43.3185 L47.6385,55.5512 L48.6722,55.5512 C61.594,55.5512 69.0025,51.7608 70.7254,44.5245 C72.4483,36.9437 73.3098,15.752 73.3098,-19.0508 Z M-25.2406,54.1728 C-31.7877,57.2741 -38.6793,60.203 -45.571,62.7874 L-45.571,5.58679 L-27.6527,5.58679 L-27.6527,-6.47358 L-45.571,-6.47358 L-45.571,-50.9246 L-57.8036,-50.9246 L-57.8036,-6.47358 L-77.4448,-6.47358 L-77.4448,5.58679 L-57.8036,5.58679 L-57.8036,66.9224 C-65.0398,68.9899 -72.2761,70.8851 -79.5123,72.4357 L-76.411,84.8406 C-58.1482,80.0165 -41.0914,73.814 -25.2406,66.4055 L-25.2406,54.1728 Z " fill="#ffffff" fill-opacity="1.00" />		</g>	</svg>