<?xml version="1.0" encoding="utf-8" ?>	<!-- Generator: Assembly 2.4 - http://assemblyapp.co -->	<svg version="1.1" xmlns="http://www.w3.org/2000/svg" xmlns:xlink="http://www.w3.org/1999/xlink" width="4096.00" height="4096.00" viewBox="0 0 4096.0 4096.0">		<g id="document" transform="scale(13.653333333333334 13.653333333333334) translate(150.0 150.0)">			<path d="M143.966,0.187978 C143.966,-79.426 79.426,-143.966 -0.187977,-143.966 C-79.8019,-143.966 -144.342,-79.426 -144.342,0.187977 C-144.342,79.8019 -79.8019,144.342 -0.187978,144.342 C79.426,144.342 143.966,79.8019 143.966,0.187978 Z " fill="#ff0000" fill-opacity="1.00" stroke-width="8.67" stroke="#4d4d4d" stroke-linecap="square" stroke-linejoin="miter" />			<path d="M-46.1536,-90.081 L-41.9816,-90.081 L-41.9816,-104.086 L-26.8659,-104.086 L-26.8659,-107.754 L-41.9816,-107.754 L-41.9816,-117.105 L-24.7903,-117.105 L-24.7903,-120.878 L-46.1536,-120.878 L-46.1536,-90.081 Z M-19.3814,-90.081 L-15.1674,-90.081 L-15.1674,-120.878 L-19.3814,-120.878 L-19.3814,-90.081 Z M-3.72057,-106.769 L-3.72057,-117.293 L6.46839,-117.293 C7.894,-117.293 9.0331,-117.084 9.88567,-116.665 C11.479,-115.868 12.2757,-114.372 12.2757,-112.178 C12.2757,-110.137 11.7061,-108.726 10.567,-107.943 C9.42794,-107.16 7.88003,-106.769 5.9233,-106.769 L-3.72057,-106.769 Z M-7.89259,-90.081 L-3.72057,-90.081 L-3.72057,-103.289 L5.77655,-103.289 C7.48169,-103.289 8.7326,-103.1 9.52927,-102.723 C10.9269,-102.038 11.6747,-100.689 11.7725,-98.6766 L12.0241,-93.5402 C12.08,-92.3382 12.1499,-91.5276 12.2337,-91.1083 C12.3176,-90.689 12.4294,-90.3465 12.5692,-90.081 L17.6846,-90.081 L17.6846,-90.7728 C17.0417,-91.0524 16.5944,-91.6813 16.3429,-92.6597 C16.1891,-93.2327 16.0913,-94.1062 16.0494,-95.2803 L15.9026,-99.4104 C15.8327,-101.199 15.4938,-102.492 14.8858,-103.289 C14.2778,-104.086 13.3728,-104.728 12.1708,-105.218 C13.5406,-105.93 14.6063,-106.874 15.368,-108.048 C16.1297,-109.222 16.5106,-110.731 16.5106,-112.576 C16.5106,-116.112 15.064,-118.537 12.1708,-119.851 C10.6474,-120.536 8.71164,-120.878 6.36356,-120.878 L-7.89259,-120.878 L-7.89259,-90.081 Z M23.0097,-90.081 L45.7776,-90.081 L45.7776,-93.7498 L27.0769,-93.7498 L27.0769,-104.19 L44.0795,-104.19 L44.0795,-107.754 L27.0769,-107.754 L27.0769,-117.105 L45.4632,-117.105 L45.4632,-120.878 L23.0097,-120.878 L23.0097,-90.081 Z " fill="#ffffff" fill-opacity="1.00" />			<path d="M-1.72291,-5.87056 C20.5026,2.3994 42.3836,13.426 63.7477,26.8647 L70.8116,16.1827 C50.4813,3.77773 27.9111,-7.0766 3.44582,-16.208 C5.51331,-22.0659 6.71935,-28.4407 7.06393,-35.6769 L7.06393,-53.7674 L-6.03018,-53.7674 L-6.03018,-35.6769 C-6.71935,-22.5828 -11.5435,-12.073 -20.8472,-3.80307 C-30.8401,4.12231 -48.5861,10.4971 -73.7405,15.3212 L-65.9874,27.2093 C-40.6607,22.0406 -22.3978,14.6321 -11.1989,5.15606 C-7.5808,1.88253 -4.47956,-1.73558 -1.72291,-5.87056 Z M-39.9715,29.4491 C-46.5186,42.1986 -54.0994,53.3975 -63.0585,62.7012 L-53.0656,69.7652 C-43.9342,59.7723 -35.8365,48.0565 -28.9449,34.6178 L-39.9715,29.4491 Z M48.7583,29.1045 C42.9004,40.648 36.0088,50.6409 27.9111,59.0831 L37.904,66.1471 C46.174,57.1879 53.4102,46.5059 59.4404,34.2732 L48.7583,29.1045 Z M6.71935,20.8345 L-6.03018,20.8345 C-6.20247,31.5166 -7.23622,39.9588 -8.95913,45.989 C-16.1954,67.87 -38.7655,83.3762 -76.4972,92.3353 L-71.3285,104.051 C-35.3196,94.5751 -11.8881,79.5858 -0.861455,59.2554 C9.13142,79.9303 33.0799,94.5751 71.3285,103.19 L76.4972,91.4738 C37.7317,83.5484 13.7833,68.0423 4.47956,44.6107 C5.85789,37.5468 6.71935,29.6214 6.71935,20.8345 Z M50.9981,-49.8048 C45.1402,-38.089 38.0763,-28.0961 29.9786,-19.6538 L39.7992,-12.7622 C48.2415,-21.7213 55.65,-32.2311 61.8525,-44.4637 L50.9981,-49.8048 Z M-39.6269,-49.2879 C-45.8294,-36.8829 -53.4102,-26.2009 -62.0247,-17.2418 L-51.8596,-9.83325 C-43.0727,-19.4815 -35.3196,-31.025 -28.7726,-44.1192 L-39.6269,-49.2879 Z " fill="#ffffff" fill-opacity="1.00" />		</g>	</svg>