<svg xmlns="http://www.w3.org/2000/svg" width="4096" height="4096"><path fill="red" stroke="#4d4d4d" stroke-linecap="square" stroke-width="118.374" d="M4013.616 2050.567c0-1086.997-881.186-1968.183-1968.183-1968.183C958.438 82.384 77.251 963.57 77.251 2050.567c0 1086.995 881.187 1968.182 1968.182 1968.182 1086.997 0 1968.183-881.187 1968.183-1968.182z"/><path fill="#fff" d="M1417.85 818.094h56.961V626.88h206.38V576.8h-206.38V449.126h234.719v-51.514h-291.68v420.482zm365.53 0h57.534V397.612h-57.535v420.482zm213.822-227.847V446.56h139.113c19.464 0 35.017 2.853 46.657 8.574 21.755 10.882 32.632 31.307 32.632 61.262 0 27.867-7.777 47.132-23.33 57.822-15.551 10.69-36.685 16.03-63.401 16.03h-131.671zm-56.962 227.847h56.962V637.761h129.667c23.281 0 40.36 2.58 51.237 7.728 19.083 9.352 29.293 27.77 30.628 55.246l3.435 70.13c.763 16.41 1.718 27.478 2.862 33.203 1.145 5.725 2.672 10.401 4.58 14.026h69.843v-9.445c-8.778-3.818-14.885-12.404-18.319-25.763-2.1-7.823-3.435-19.75-4.007-35.78l-2.005-56.39c-.954-24.42-5.581-42.073-13.882-52.955-8.301-10.882-20.658-19.647-37.069-26.337 18.702-9.722 33.253-22.61 43.652-38.64 10.4-16.028 15.6-36.631 15.6-61.822 0-48.278-19.75-81.387-59.252-99.328-20.8-9.352-47.23-14.022-79.288-14.022H1940.24v420.482zm421.92 0h310.857v-50.091H2417.69V625.459h232.142V576.8H2417.69V449.126h251.034v-51.514H2362.16v420.482zM2024.477 1967.847c303.452 112.913 602.2 263.463 893.892 446.946l96.445-145.845c-277.576-169.37-585.734-317.567-919.767-442.241 28.228-79.98 44.695-167.017 49.4-265.816v-246.995h-178.78v246.995c-9.409 178.779-75.274 322.272-202.3 435.184-136.437 108.208-378.73 195.245-722.17 261.11l105.855 162.313c345.794-70.57 595.143-171.721 748.046-301.1 49.399-44.695 91.741-94.094 129.379-150.55zm-522.221 482.231c-89.39 174.074-192.893 326.976-315.215 454.002l136.437 96.448c124.674-136.437 235.234-296.397 329.328-479.88l-150.55-70.57zm1211.457-4.705c-79.98 157.608-174.073 294.044-284.633 409.308l136.436 96.447c112.913-122.323 211.711-268.167 294.044-435.185l-145.847-70.57zm-573.971-112.913h-174.074c-2.352 145.847-16.467 261.11-39.99 343.443-98.8 298.749-406.956 510.46-922.12 632.782l70.57 159.958c491.642-129.378 811.56-334.032 962.11-611.61 136.436 282.282 463.413 482.232 985.634 599.854l70.57-159.965c-529.279-108.208-856.254-319.918-983.281-639.837 18.819-96.446 30.58-204.654 30.58-324.625zm604.552-964.462c-79.98 159.96-176.426 296.397-286.986 411.662l134.084 94.093c115.265-122.321 216.416-265.815 301.1-432.83l-148.198-72.925zm-1237.333 7.058c-84.685 169.37-188.188 315.214-305.805 437.536l138.788 101.151c119.97-131.73 225.826-289.338 315.214-468.117l-148.197-70.57z"/></svg>