<?xml version="1.0" encoding="utf-8" ?>	<!-- Generator: Assembly 2.4 - http://assemblyapp.co -->	<svg version="1.1" xmlns="http://www.w3.org/2000/svg" xmlns:xlink="http://www.w3.org/1999/xlink" width="4096.00" height="4096.00" viewBox="0 0 4096.0 4096.0">		<g id="document" transform="scale(13.653333333333334 13.653333333333334) translate(150.0 150.0)">			<path d="M146.223,1.94324e-07 C146.223,-79.6139 81.6836,-144.154 2.06969,-144.154 C-77.5442,-144.154 -142.084,-79.6139 -142.084,-1.94324e-07 C-142.084,79.6139 -77.5442,144.154 2.06969,144.154 C81.6836,144.154 146.223,79.6139 146.223,1.94324e-07 Z " fill="#9c5926" fill-opacity="1.00" stroke-width="9.11" stroke="#fce29b" stroke-linecap="square" stroke-linejoin="miter" />			<path d="M-61.4999,-90.0705 L-41.73,-90.0705 L-41.73,-93.7394 L-57.3279,-93.7394 L-57.3279,-120.868 L-61.4999,-120.868 L-61.4999,-90.0705 Z M-36.6774,-90.0705 L-32.4635,-90.0705 L-32.4635,-120.868 L-36.6774,-120.868 L-36.6774,-90.0705 Z M-12.3791,-121.665 C-16.6,-121.665 -20.0383,-120.211 -22.6938,-117.304 C-25.4892,-114.257 -26.8868,-110.155 -26.8868,-104.998 C-26.8868,-99.8262 -25.4542,-95.759 -22.589,-92.7959 C-19.9614,-90.4339 -16.8236,-89.2529 -13.1758,-89.2529 C-10.3525,-89.2529 -8.02537,-89.77 -6.19443,-90.8043 C-5.10425,-91.4053 -3.85335,-92.4815 -2.44171,-94.0329 L-1.43539,-90.0705 L1.24812,-90.0705 L1.24812,-106.549 L-12.2743,-106.549 L-12.2743,-103.09 L-2.63039,-103.09 C-2.67232,-99.4838 -3.60526,-96.8736 -5.42921,-95.2593 C-7.25316,-93.645 -9.55581,-92.8379 -12.3372,-92.8379 C-15.9711,-92.8379 -18.5917,-93.9874 -20.199,-96.2866 C-21.8063,-98.5858 -22.61,-101.566 -22.61,-105.228 C-22.61,-109.463 -21.6351,-112.65 -19.6854,-114.788 C-17.7356,-116.927 -15.3351,-117.996 -12.4839,-117.996 C-10.0799,-117.996 -8.08826,-117.482 -6.5089,-116.455 C-4.92955,-115.428 -3.88829,-113.789 -3.38513,-111.539 L0.744962,-111.539 C0.0601074,-115.564 -1.81276,-118.38 -4.87364,-119.987 C-6.98411,-121.106 -9.48592,-121.665 -12.3791,-121.665 Z M7.81014,-90.0705 L12.0241,-90.0705 L12.0241,-104.473 L28.0413,-104.473 L28.0413,-90.0705 L32.2553,-90.0705 L32.2553,-120.868 L28.0413,-120.868 L28.0413,-108.142 L12.0241,-108.142 L12.0241,-120.868 L7.81014,-120.868 L7.81014,-90.0705 Z M61.124,-120.868 L61.124,-117.199 L50.7463,-117.199 L50.7463,-90.0705 L46.5114,-90.0705 L46.5114,-117.199 L36.1338,-117.199 L36.1338,-120.868 L61.124,-120.868 Z " fill="#ffffff" fill-opacity="1.00" />			<path d="M-6.03018,-53.509 L-6.03018,10.4109 L-74.7743,10.4109 L-74.7743,22.6436 L-27.9111,22.6436 L-27.9111,23.8496 C-28.2557,41.5956 -32.0461,56.068 -38.9378,67.0947 C-46.5186,77.7767 -59.6127,86.219 -78.5647,92.766 L-71.5007,103.793 C-52.0319,97.0733 -37.904,87.7696 -29.2895,75.7092 C-20.5026,62.6151 -15.8508,45.386 -15.3339,23.8496 L-15.3339,22.6436 L13.7833,22.6436 L13.7833,82.9454 C13.7833,94.1443 18.952,99.8299 29.634,99.8299 L56.5114,99.8299 C63.4031,99.8299 68.3995,98.107 71.5007,94.6612 C74.9466,90.8708 77.3586,79.8442 78.5647,61.5813 L66.6766,57.7909 C65.9874,72.608 64.6091,81.3948 62.5416,84.496 C60.8187,86.9081 58.0621,88.1142 54.2717,88.1142 L33.4244,88.1142 C28.6003,88.1142 26.1882,85.5298 26.1882,80.3611 L26.1882,22.6436 L75.6357,22.6436 L75.6357,10.4109 L6.71935,10.4109 L6.71935,-53.509 L-6.03018,-53.509 Z M51.1704,-45.239 C45.4848,-31.8004 37.904,-18.0171 28.428,-4.2338 L39.6269,1.4518 C49.1029,-11.8146 56.856,-25.5979 62.7139,-39.7257 L51.1704,-45.239 Z M-49.9644,-43.6884 L-61.6802,-38.1751 C-53.2379,-26.4593 -45.1402,-13.3652 -37.5594,1.4518 L-26.0159,-4.2338 C-33.5967,-18.5339 -41.5221,-31.6281 -49.9644,-43.6884 Z " fill="#ffffff" fill-opacity="1.00" />		</g>	</svg>