<svg xmlns="http://www.w3.org/2000/svg" width="4096" height="4096"><path fill="#9c5926" stroke="#fce29b" stroke-linecap="square" stroke-width="124.382" d="M4044.431 2048c0-1086.995-881.178-1968.183-1968.173-1968.183S108.08 961.005 108.08 2048s881.183 1968.183 1968.178 1968.183c1086.995 0 1968.173-881.188 1968.173-1968.183z"/><path fill="#fff" d="M1208.321 818.237h269.925v-50.092h-212.963V397.749h-56.962v420.488zm338.91 0h57.534V397.75h-57.534v420.488zm331.753-431.37c-57.63 0-104.574 19.852-140.83 59.542-38.167 41.602-57.248 97.608-57.248 168.018 0 70.613 19.56 126.143 58.679 166.6 35.875 32.249 78.717 48.373 128.521 48.373 38.548 0 70.32-7.06 95.32-21.181 14.884-8.206 31.963-22.9 51.237-44.082l13.74 54.1h36.638V593.251h-184.626v47.227h131.671c-.572 49.237-13.31 84.874-38.213 106.915-24.903 22.04-56.342 33.06-94.317 33.06-49.615 0-85.395-15.694-107.34-47.086-21.945-31.392-32.918-72.081-32.918-122.08 0-57.822 13.31-101.335 39.93-130.526 26.622-29.204 59.397-43.8 98.325-43.8 32.823 0 60.015 7.018 81.579 21.04 21.563 14.022 35.78 36.4 42.65 67.12h56.39c-9.351-54.955-34.922-93.403-76.713-115.344-28.815-15.278-62.973-22.91-102.475-22.91zm275.65 431.37h57.535V621.595h218.688v196.642h57.535V397.75h-57.535V571.5H2212.17V397.75h-57.535v420.488zm727.912-420.488v50.094h-141.69v370.394h-57.82V447.843h-141.69v-50.094h341.2zM1965.668 1317.424v872.72h-938.586v167.017h639.838v16.466c-4.704 242.292-56.456 439.888-150.55 590.44-103.504 145.844-282.282 261.11-541.04 350.498l96.447 150.555c265.814-91.746 458.707-218.772 576.324-383.437 119.97-178.778 183.483-414.013 190.54-708.056v-16.466h397.547v823.32c0 152.903 70.57 230.53 216.415 230.53h366.966c94.095 0 162.312-23.523 204.654-70.57 47.048-51.752 79.98-202.302 96.447-451.651l-162.312-51.752c-9.41 202.303-28.228 322.272-56.457 364.614-23.523 32.933-61.16 49.4-112.911 49.4h-284.636c-65.865 0-98.798-35.285-98.798-105.855V2357.16h675.123v-167.018h-940.937v-872.72h-174.074zm780.979 112.913c-77.628 183.482-181.131 371.67-310.51 559.858l152.902 77.627c129.38-181.13 235.235-369.319 315.215-562.21l-157.607-75.275zm-1380.828 21.17l-159.96 75.276c115.266 159.96 225.827 338.737 329.33 541.039l157.607-77.627c-103.503-195.245-211.711-374.024-326.977-538.687z"/></svg>