<?xml version="1.0" encoding="utf-8" ?>	<!-- Generator: Assembly 2.4 - http://assemblyapp.co -->	<svg version="1.1" xmlns="http://www.w3.org/2000/svg" xmlns:xlink="http://www.w3.org/1999/xlink" width="4096.00" height="4096.00" viewBox="0 0 4096.0 4096.0">		<g id="document" transform="scale(13.653333333333334 13.653333333333334) translate(150.0 150.0)">			<path d="M143.966,0.187978 C143.966,-79.426 79.426,-143.966 -0.187977,-143.966 C-79.8019,-143.966 -144.342,-79.426 -144.342,0.187977 C-144.342,79.8019 -79.8019,144.342 -0.187978,144.342 C79.426,144.342 143.966,79.8019 143.966,0.187978 Z " fill="#00b4ce" fill-opacity="1.00" stroke-width="8.22" stroke="#4d4d4d" stroke-linecap="square" stroke-linejoin="miter" />			<path d="M-61.5914,-117.872 L-55.1128,-93.0877 L-51.5866,-93.0877 L-45.8335,-113.637 L-40.1141,-93.0877 L-36.588,-93.0877 L-30.0756,-117.872 L-33.7536,-117.872 L-38.427,-97.7104 L-44.0283,-117.872 L-47.6725,-117.872 L-53.2738,-97.7104 L-57.9472,-117.872 L-61.5914,-117.872 Z M-22.0111,-103.244 L-18.0126,-114.194 L-14.2503,-103.244 L-22.0111,-103.244 Z M-29.0971,-93.0877 L-25.6553,-93.0877 L-22.9728,-100.511 L-13.1705,-100.511 L-10.6567,-93.0877 L-6.97871,-93.0877 L-15.9712,-117.872 L-19.7672,-117.872 L-29.0971,-93.0877 Z M14.1105,-117.872 L14.1105,-114.919 L5.75918,-114.919 L5.75918,-93.0877 L2.35117,-93.0877 L2.35117,-114.919 L-6.00017,-114.919 L-6.00017,-117.872 L14.1105,-117.872 Z M17.5017,-93.0877 L35.824,-93.0877 L35.824,-96.0402 L20.7747,-96.0402 L20.7747,-104.442 L34.4574,-104.442 L34.4574,-107.31 L20.7747,-107.31 L20.7747,-114.835 L35.5709,-114.835 L35.5709,-117.872 L17.5017,-117.872 L17.5017,-93.0877 Z M43.9897,-106.517 L43.9897,-114.987 L52.1892,-114.987 C53.3365,-114.987 54.2532,-114.818 54.9393,-114.481 C56.2215,-113.839 56.8626,-112.636 56.8626,-110.87 C56.8626,-109.228 56.4043,-108.092 55.4876,-107.462 C54.5709,-106.832 53.3252,-106.517 51.7506,-106.517 L43.9897,-106.517 Z M40.6323,-93.0877 L43.9897,-93.0877 L43.9897,-103.717 L51.6325,-103.717 C53.0047,-103.717 54.0113,-103.565 54.6525,-103.261 C55.7772,-102.71 56.379,-101.625 56.4577,-100.005 L56.6601,-95.8715 C56.7051,-94.9042 56.7614,-94.2518 56.8289,-93.9144 C56.8963,-93.577 56.9863,-93.3014 57.0988,-93.0877 L61.2154,-93.0877 L61.2154,-93.6444 C60.698,-93.8694 60.3381,-94.3755 60.1357,-95.1629 C60.0119,-95.624 59.9332,-96.327 59.8995,-97.2718 L59.7814,-100.595 C59.7251,-102.035 59.4524,-103.076 58.9631,-103.717 C58.4738,-104.358 57.7455,-104.875 56.7782,-105.269 C57.8805,-105.842 58.7381,-106.602 59.3511,-107.546 C59.9641,-108.491 60.2706,-109.706 60.2706,-111.191 C60.2706,-114.036 59.1065,-115.988 56.7782,-117.045 C55.5523,-117.596 53.9945,-117.872 52.1049,-117.872 L40.6323,-117.872 L40.6323,-93.0877 Z " fill="#ffffff" fill-opacity="1.00" />			<path d="M-74.5158,-9.40253 L-74.5158,2.65784 L-30.7539,2.65784 C-39.7131,34.704 -55.9084,59.5139 -79.5123,76.9152 L-71.5869,87.0804 C-45.0541,67.4392 -27.4804,38.4944 -18.5213,0.418058 L-18.5213,-9.40253 L-74.5158,-9.40253 Z M58.8374,-25.9425 C47.4662,-11.1254 34.8889,2.14097 20.9334,13.6845 C15.7646,4.03617 11.2851,-6.30129 7.66695,-17.3279 L7.66695,-53.8536 L-5.08258,-53.8536 L-5.08258,84.8406 C-5.08258,90.0094 -7.49466,92.766 -11.9742,92.766 C-18.5213,92.766 -25.5852,92.4214 -32.8214,91.9046 L-30.2371,104.137 L-7.66695,104.137 C2.49822,104.137 7.66695,98.6239 7.66695,87.9419 L7.66695,9.54948 C20.4165,39.5281 41.9528,66.0609 71.9315,89.1479 L79.5123,77.949 C57.8036,63.4765 40.0576,45.386 26.619,23.505 C41.2637,12.1338 55.3915,-1.99402 68.8302,-18.5339 L58.8374,-25.9425 Z " fill="#ffffff" fill-opacity="1.00" />		</g>	</svg>