<svg xmlns="http://www.w3.org/2000/svg" width="4096" height="4096"><path fill="#00b4ce" stroke="#4d4d4d" stroke-linecap="square" stroke-width="112.23" d="M4013.616 2050.567c0-1086.997-881.186-1968.183-1968.183-1968.183C958.438 82.384 77.251 963.57 77.251 2050.567c0 1086.995 881.187 1968.182 1968.182 1968.182 1086.997 0 1968.183-881.187 1968.183-1968.182z"/><path fill="#fff" d="M1207.072 438.654l88.455 338.389h48.144l78.549-280.567 78.089 280.567h48.143l88.916-338.389h-50.217l-63.808 275.273-76.476-275.273h-49.756l-76.476 275.273-63.807-275.273h-49.756zm540.403 199.721l54.593-149.504 51.368 149.504h-105.96zm-96.747 138.668h46.992l36.625-101.353h133.834l34.322 101.353h50.216L1829.94 438.654h-51.828l-127.384 338.389zm589.927-338.389v40.319h-114.023v298.07h-46.53v-298.07h-114.024v-40.319h274.577zm46.302 338.389h250.16V736.73h-205.473V622.02h186.814V582.86h-186.814V480.119h202.017v-41.465h-246.704v338.389zm361.649-183.355V478.044h111.95c15.665 0 28.181 2.308 37.549 6.909 17.506 8.765 26.259 25.19 26.259 49.302 0 22.419-6.257 37.929-18.773 46.53-12.516 8.602-29.524 12.903-51.023 12.903h-105.962zm-45.84 183.355h45.84V631.917h104.35c18.735 0 32.478 2.076 41.233 6.226 15.356 7.523 23.572 22.337 24.647 44.455l2.763 56.436c.615 13.207 1.383 22.115 2.305 26.721.92 4.607 2.149 8.37 3.685 11.288h56.205v-7.601c-7.064-3.072-11.978-9.982-14.741-20.733-1.69-6.295-2.765-15.894-3.225-28.793l-1.613-45.373c-.768-19.66-4.492-33.874-11.172-42.626-6.68-8.752-16.624-15.81-29.831-21.19 15.05-7.823 26.759-18.2 35.128-31.088 8.37-12.903 12.555-29.492 12.555-49.767 0-38.844-15.894-65.495-47.683-79.926-16.738-7.523-38.007-11.292-63.806-11.292h-156.64v338.389zM1030.61 1919.624v164.664h597.497c-122.323 437.537-343.443 776.275-665.715 1013.86l108.208 138.79c362.261-268.168 602.2-663.361 724.523-1183.23v-134.084H1030.61zm1820.717-225.826c-155.255 202.303-326.977 383.433-517.516 541.041-70.572-131.732-131.732-272.873-181.132-423.423V1312.72h-174.073v1893.638c0 70.571-32.933 108.208-94.094 108.208-89.39 0-185.835-4.705-284.634-11.76l35.285 167.012h308.158c138.788 0 209.358-75.272 209.358-221.117V2178.382c174.074 409.308 468.117 771.57 877.426 1086.784l103.503-152.902c-296.396-197.598-538.688-444.594-722.17-743.342 199.95-155.255 392.84-348.147 576.324-573.972l-136.435-101.152z"/></svg>