<svg xmlns="http://www.w3.org/2000/svg" width="4096" height="4096"><path d="M4013.616 2050.567c0-1086.997-881.186-1968.183-1968.183-1968.183C958.438 82.384 77.251 963.57 77.251 2050.567c0 1086.995 881.187 1968.182 1968.182 1968.182 1086.997 0 1968.183-881.187 1968.183-1968.182z" fill="#41be00"/><path d="M1283.603 397.612l109.916 420.482h59.825l97.608-348.638 97.035 348.638h59.825l110.49-420.482H1755.9l-79.29 342.052-95.03-342.052h-61.83l-95.031 342.052-79.29-342.052h-61.827zm600.247 420.482h57.535V397.612h-57.535v420.482zm149.99 0h54.387V477.757l215.54 340.337h63.832V397.612h-54.1v340.621l-212.392-340.62h-67.266v420.481zm483.175-48.66V446.56h101.044c45.989 0 79.336 14.404 100.041 43.212 20.705 28.823 31.057 69.277 31.057 121.365 0 13.558-1.43 28.249-4.294 44.086-4.961 26.529-13.071 48.28-24.33 65.263-14.121 21.182-32.249 35.494-54.385 42.936-12.404 4.007-28.243 6.012-47.516 6.012h-101.617zm-57.247 48.66h169.741c72.132 0 122.988-31.868 152.567-95.605 16.792-36.065 25.189-76.427 25.189-121.073 0-57.822-14.218-105.254-42.65-142.268-31.869-41.028-76.713-61.536-134.534-61.536h-170.313v420.482zM1430.509 1907.862c155.255-9.408 305.805-21.17 449.298-30.58v204.654H1461.09v708.056h421.07v369.318c-155.255 18.819-331.68 32.934-533.983 42.342l47.048 157.607c430.478-32.932 759.807-79.98 990.337-145.845 23.524 56.457 47.047 115.266 70.57 178.779l152.903-63.513c-65.867-167.017-145.845-324.624-237.588-472.822l-136.436 54.104c28.228 49.4 58.81 103.503 87.037 164.664-79.98 23.523-171.72 42.343-275.224 61.161v-345.795h421.07v-708.056h-418.718v-221.12c169.37-18.819 329.329-37.639 475.174-58.81l-49.4-136.436c-310.509 47.048-670.418 79.98-1075.022 96.447l30.58 145.845zm884.482 731.58h-270.52v-406.955h270.52v406.955zm-430.479 0h-265.815v-406.955h265.815v406.955zm-757.455-1291.437v971.517c-4.705 404.605-61.162 738.638-164.665 1006.805l131.732 108.21c127.026-301.102 192.892-672.774 197.597-1115.015v-811.558h1343.19v889.186c0 399.9 23.523 668.067 75.274 802.15 44.694 134.084 117.618 202.302 216.417 202.302 42.341 0 82.332-30.58 115.264-89.39 35.285-68.217 65.866-195.243 91.742-381.079l-136.436-65.866c-23.524 235.234-54.105 352.852-87.038 352.852-30.58 0-56.455-49.399-75.275-145.846-23.523-98.798-32.931-324.623-32.931-675.123V1348.005H1127.057z" fill="#fff"/></svg>