<?xml version="1.0" encoding="utf-8" ?>	<!-- Generator: Assembly 2.4 - http://assemblyapp.co -->	<svg version="1.1" xmlns="http://www.w3.org/2000/svg" xmlns:xlink="http://www.w3.org/1999/xlink" width="4096.00" height="4096.00" viewBox="0 0 4096.0 4096.0">		<g id="document" transform="scale(13.653333333333334 13.653333333333334) translate(150.0 150.0)">			<path d="M143.966,0.187978 C143.966,-79.426 79.426,-143.966 -0.187977,-143.966 C-79.8019,-143.966 -144.342,-79.426 -144.342,0.187977 C-144.342,79.8019 -79.8019,144.342 -0.187978,144.342 C79.426,144.342 143.966,79.8019 143.966,0.187978 Z " fill="#41be00" fill-opacity="1.00" />			<path d="M-55.9861,-120.878 L-47.9356,-90.081 L-43.5539,-90.081 L-36.4049,-115.616 L-29.2978,-90.081 L-24.9161,-90.081 L-16.8236,-120.878 L-21.394,-120.878 L-27.2013,-95.8254 L-34.1616,-120.878 L-38.6901,-120.878 L-45.6504,-95.8254 L-51.4577,-120.878 L-55.9861,-120.878 Z M-12.0227,-90.081 L-7.80873,-90.081 L-7.80873,-120.878 L-12.0227,-120.878 L-12.0227,-90.081 Z M-1.03706,-90.081 L2.94628,-90.081 L2.94628,-115.008 L18.7329,-90.081 L23.4081,-90.081 L23.4081,-120.878 L19.4457,-120.878 L19.4457,-95.9302 L3.8897,-120.878 L-1.03706,-120.878 L-1.03706,-90.081 Z M34.3517,-93.645 L34.3517,-117.293 L41.7524,-117.293 C45.1207,-117.293 47.5631,-116.238 49.0796,-114.128 C50.5961,-112.017 51.3543,-109.054 51.3543,-105.239 C51.3543,-104.246 51.2495,-103.17 51.0398,-102.01 C50.6764,-100.067 50.0824,-98.4739 49.2578,-97.23 C48.2235,-95.6786 46.8958,-94.6304 45.2745,-94.0853 C44.366,-93.7918 43.2059,-93.645 41.7943,-93.645 L34.3517,-93.645 Z M30.1588,-90.081 L42.591,-90.081 C47.8741,-90.081 51.5989,-92.4151 53.7653,-97.0833 C54.9952,-99.7248 55.6102,-102.681 55.6102,-105.951 C55.6102,-110.186 54.5689,-113.66 52.4864,-116.371 C50.1523,-119.376 46.8678,-120.878 42.6329,-120.878 L30.1588,-120.878 L30.1588,-90.081 Z " fill="#ffffff" fill-opacity="1.00" />			<path d="M-45.2264,-10.264 C-33.8552,-10.9531 -22.8286,-11.8146 -12.3188,-12.5038 L-12.3188,2.48555 L-42.9866,2.48555 L-42.9866,54.3451 L-12.1465,54.3451 L-12.1465,81.3948 C-23.5177,82.7731 -36.4395,83.8069 -51.2566,84.496 L-47.8107,96.0395 C-16.2815,93.6275 7.83924,90.1816 24.7238,85.3575 C26.4467,89.4925 28.1696,93.7998 29.8925,98.4516 L41.0914,93.7998 C36.2672,81.5671 30.4094,70.0236 23.69,59.1693 L13.6971,63.132 C15.7646,66.7501 18.0044,70.7128 20.0719,75.1923 C14.214,76.9152 7.49466,78.2936 -0.0861455,79.6719 L-0.0861455,54.3451 L30.7539,54.3451 L30.7539,2.48555 L0.0861455,2.48555 L0.0861455,-13.7098 C12.4911,-15.0881 24.2069,-16.4665 34.8889,-18.0171 L31.2708,-28.01 C8.5284,-24.5641 -17.8321,-22.1521 -47.4662,-20.946 L-45.2264,-10.264 Z M19.555,43.3185 L-0.258436,43.3185 L-0.258436,13.5122 L19.555,13.5122 L19.555,43.3185 Z M-11.9742,43.3185 L-31.4431,43.3185 L-31.4431,13.5122 L-11.9742,13.5122 L-11.9742,43.3185 Z M-67.4519,-51.2692 L-67.4519,19.8869 C-67.7965,49.521 -71.9315,73.9863 -79.5123,93.6275 L-69.864,101.553 C-60.5603,79.4996 -55.7361,52.2776 -55.3915,19.8869 L-55.3915,-39.5534 L42.9866,-39.5534 L42.9866,25.5725 C42.9866,54.862 44.7095,74.5032 48.4999,84.3238 C51.7734,94.1443 57.1145,99.1408 64.3507,99.1408 C67.4519,99.1408 70.3809,96.901 72.7929,92.5937 C75.3773,87.5973 77.6171,78.2936 79.5123,64.6826 L69.5194,59.8584 C67.7965,77.0875 65.5567,85.7021 63.1446,85.7021 C60.9049,85.7021 59.0097,82.084 57.6313,75.02 C55.9084,67.7838 55.2193,51.2439 55.2193,25.5725 L55.2193,-51.2692 L-67.4519,-51.2692 Z " fill="#ffffff" fill-opacity="1.00" />		</g>	</svg>